<?xml version="1.0" encoding="UTF-8"?>
<svg version="1.1" xmlns="http://www.w3.org/2000/svg" width="2367" height="2942">
<path d="M0 0 C1.00232666 0.53923096 1.00232666 0.53923096 2.02490234 1.08935547 C15.8761637 8.58223447 28.69074344 17.17954113 41 27 C41.98097656 27.7734375 42.96195312 28.546875 43.97265625 29.34375 C58.96034465 41.56596816 73.30110849 55.48735471 84.66601562 71.17431641 C86.14994481 73.20521363 87.67437979 75.20185642 89.203125 77.19921875 C96.28231041 86.52326968 102.74196213 96.13271167 108.97436523 106.03881836 C117.17021698 118.99125144 125.82570765 131.63605521 134.44555664 144.30859375 C140.0865692 152.61627372 145.65492376 160.94827285 150.9765625 169.46484375 C157.5930341 180.05328806 164.60215758 190.3658562 171.625 200.6875 C185.60872267 221.24212698 185.60872267 221.24212698 190.9921875 229.98828125 C197.17700414 240.03617784 203.86529194 249.74607775 210.5 259.5 C224.61714644 280.25412326 224.61714644 280.25412326 231.1730957 290.90600586 C236.98852241 300.29489492 243.28974999 309.37008874 249.5 318.5 C263.61881725 339.25657958 263.61881725 339.25657958 270.18215942 349.91960144 C276.54059042 360.18532608 283.46249219 370.09246676 290.25390625 380.07397461 C297.1560059 390.22629316 303.94969183 400.4163493 310.45452881 410.82815552 C316.59530756 420.6139798 323.1268729 430.13704319 329.625 439.6875 C343.60872267 460.24212698 343.60872267 460.24212698 348.9921875 468.98828125 C355.17700414 479.03617784 361.86529194 488.74607775 368.5 498.5 C382.61714644 519.25412326 382.61714644 519.25412326 389.1730957 529.90600586 C394.98852241 539.29489492 401.28974999 548.37008874 407.5 557.5 C421.61714644 578.25412326 421.61714644 578.25412326 428.1730957 588.90600586 C433.98852241 598.29489492 440.28974999 607.37008874 446.5 616.5 C460.61881725 637.25657958 460.61881725 637.25657958 467.18215942 647.91960144 C473.54059042 658.18532608 480.46249219 668.09246676 487.25390625 678.07397461 C494.1560059 688.22629316 500.94969183 698.4163493 507.45452881 708.82815552 C513.59530756 718.6139798 520.1268729 728.13704319 526.625 737.6875 C540.60872267 758.24212698 540.60872267 758.24212698 545.9921875 766.98828125 C552.17700414 777.03617784 558.86529194 786.74607775 565.5 796.5 C579.61714644 817.25412326 579.61714644 817.25412326 586.1730957 827.90600586 C591.98852241 837.29489492 598.28974999 846.37008874 604.5 855.5 C618.61881725 876.25657958 618.61881725 876.25657958 625.18215942 886.91960144 C631.54059042 897.18532608 638.46249219 907.09246676 645.25390625 917.07397461 C652.1560059 927.22629316 658.94969183 937.4163493 665.45452881 947.82815552 C671.59530756 957.6139798 678.1268729 967.13704319 684.625 976.6875 C692.23225882 987.86938419 699.79485641 999.04865468 706.87841797 1010.57177734 C711.81223859 1020.02334777 711.81223859 1020.02334777 719 1027 C719.41052612 1025.89432426 719.41052612 1025.89432426 719.8293457 1024.76631165 C720.92923778 1022.16721447 722.14466973 1020.06379437 723.73046875 1017.73901367 C724.27864258 1016.93014206 724.82681641 1016.12127045 725.39160156 1015.28788757 C725.98424805 1014.42331436 726.57689453 1013.55874115 727.1875 1012.66796875 C727.80463867 1011.75856033 728.42177734 1010.84915192 729.05761719 1009.91218567 C731.03394121 1007.00088802 733.01644213 1004.09387285 735 1001.1875 C745.85129864 985.28776089 745.85129864 985.28776089 756.19836426 969.05924988 C762.59541596 958.72148965 769.56882725 948.74949391 776.40478516 938.69970703 C785.40443426 925.48163238 785.40443426 925.48163238 794 912 C800.77291141 900.99560471 808.13886593 890.38159546 815.40478516 879.69970703 C821.82494961 870.2538148 828.19490766 860.80748496 834.18215942 851.08039856 C840.54059042 840.81467392 847.46249219 830.90753324 854.25390625 820.92602539 C860.63942351 811.5335494 866.98166065 802.13310585 873 792.5 C879.60808489 781.92293257 886.61008661 771.6224903 893.625 761.3125 C903.5323391 746.80830883 903.5323391 746.80830883 912.9921875 732.01171875 C919.76804871 721.003607 927.13621375 710.38549452 934.40478516 699.69970703 C943.40443426 686.48163238 943.40443426 686.48163238 952 673 C958.77291141 661.99560471 966.13886593 651.38159546 973.40478516 640.69970703 C982.40443426 627.48163238 982.40443426 627.48163238 991 614 C997.77291141 602.99560471 1005.13886593 592.38159546 1012.40478516 581.69970703 C1021.40443426 568.48163238 1021.40443426 568.48163238 1030 555 C1036.77291141 543.99560471 1044.13886593 533.38159546 1051.40478516 522.69970703 C1058.35043674 512.48067342 1065.19233367 502.23352451 1071.68554688 491.72070312 C1075.12564689 486.16137923 1078.71726333 480.70221905 1082.33496094 475.25732422 C1083.53453037 473.447915 1084.7241179 471.63215573 1085.9140625 469.81640625 C1086.68169336 468.65845731 1087.44989837 467.50088873 1088.21875 466.34375 C1089.2387207 464.79977539 1089.2387207 464.79977539 1090.27929688 463.22460938 C1090.84712891 462.49048828 1091.41496094 461.75636719 1092 461 C1092.66 461 1093.32 461 1094 461 C1094.41660889 461.82910889 1094.83321777 462.65821777 1095.26245117 463.51245117 C1103.81950875 480.47990073 1112.57544905 497.08358792 1123 513 C1123.74926758 514.15580566 1123.74926758 514.15580566 1124.51367188 515.33496094 C1135.32406675 531.9863429 1146.8791014 547.97952494 1159.56005859 563.25585938 C1161.58754398 565.71166737 1163.57005696 568.20322868 1165.5625 570.6875 C1170.27042233 576.43116524 1175.29948115 581.84804118 1180.37890625 587.26123047 C1182.02634205 589.02825423 1183.65535618 590.81080662 1185.28125 592.59765625 C1194.07937812 602.22176226 1203.39761893 611.18317702 1213 620 C1214.44246094 621.33224609 1214.44246094 621.33224609 1215.9140625 622.69140625 C1221.75734735 628.02456305 1227.80841717 633.07738867 1234 638 C1234.65000977 638.51723633 1235.30001953 639.03447266 1235.96972656 639.56738281 C1260.2937638 658.85501838 1285.95892298 675.75634817 1313 691 C1313.79664063 691.44939941 1314.59328125 691.89879883 1315.4140625 692.36181641 C1382.95786154 730.06102306 1458.54848824 747.38985791 1535 754 C1533.3116875 758.93596069 1530.58123517 763.0908924 1527.7890625 767.45703125 C1527.26172516 768.2864473 1526.73438782 769.11586334 1526.19107056 769.97041321 C1519.77453005 780.00241917 1513.07344391 789.84263266 1506.375 799.6875 C1496.4676609 814.19169117 1496.4676609 814.19169117 1487.0078125 828.98828125 C1480.23195129 839.996393 1472.86378625 850.61450548 1465.59521484 861.30029297 C1456.59556574 874.51836762 1456.59556574 874.51836762 1448 888 C1441.22708859 899.00439529 1433.86113407 909.61840454 1426.59521484 920.30029297 C1417.59556574 933.51836762 1417.59556574 933.51836762 1409 947 C1402.22708859 958.00439529 1394.86113407 968.61840454 1387.59521484 979.30029297 C1378.59556574 992.51836762 1378.59556574 992.51836762 1370 1006 C1363.22708859 1017.00439529 1355.86113407 1027.61840454 1348.59521484 1038.30029297 C1339.59556574 1051.51836762 1339.59556574 1051.51836762 1331 1065 C1324.22708859 1076.00439529 1316.86113407 1086.61840454 1309.59521484 1097.30029297 C1300.59556574 1110.51836762 1300.59556574 1110.51836762 1292 1124 C1285.22708859 1135.00439529 1277.86113407 1145.61840454 1270.59521484 1156.30029297 C1261.59556574 1169.51836762 1261.59556574 1169.51836762 1253 1183 C1246.22708859 1194.00439529 1238.86113407 1204.61840454 1231.59521484 1215.30029297 C1222.59556574 1228.51836762 1222.59556574 1228.51836762 1214 1242 C1207.22708859 1253.00439529 1199.86113407 1263.61840454 1192.59521484 1274.30029297 C1183.59556574 1287.51836762 1183.59556574 1287.51836762 1175 1301 C1168.22708859 1312.00439529 1160.86113407 1322.61840454 1153.59521484 1333.30029297 C1144.59556574 1346.51836762 1144.59556574 1346.51836762 1136 1360 C1129.22708859 1371.00439529 1121.86113407 1381.61840454 1114.59521484 1392.30029297 C1105.59556574 1405.51836762 1105.59556574 1405.51836762 1097 1419 C1090.22708859 1430.00439529 1082.86113407 1440.61840454 1075.59521484 1451.30029297 C1066.59556574 1464.51836762 1066.59556574 1464.51836762 1058 1478 C1051.22708859 1489.00439529 1043.86113407 1499.61840454 1036.59521484 1510.30029297 C1034.71734721 1513.06317162 1032.84300363 1515.82841894 1030.96875 1518.59375 C1030.4173938 1519.40154907 1029.8660376 1520.20934814 1029.29797363 1521.04162598 C1026.75798033 1524.78985858 1024.27486145 1528.53178631 1021.98153335 1532.43836403 C1018.04299288 1539.12961338 1014.00630963 1545.21350126 1008.68255464 1550.89124119 C977.55401753 1584.19017564 980.93697838 1622.78028039 981.5364537 1665.52879632 C981.68274358 1676.40929402 981.65521007 1687.28784526 981.62399352 1698.16903685 C981.57102571 1718.24628583 981.6512362 1738.32085627 981.80976295 1758.39746094 C981.96610951 1778.2625723 982.06037254 1798.12644629 982.07425499 1817.9921875 C982.07560102 1819.85344439 982.07560102 1819.85344439 982.07697424 1821.75230244 C982.08120211 1828.05586629 982.08432047 1834.35943018 982.08699819 1840.66299486 C982.10776935 1885.20336666 982.26099001 1929.74253105 982.49487305 1974.28222656 C982.55134144 1985.04967833 982.60740155 1995.81713199 982.66174316 2006.58459473 C982.66511465 2007.25234361 982.66848613 2007.92009249 982.67195978 2008.60807618 C982.8282096 2039.66714889 982.91403173 2070.72629587 982.98076927 2101.78567547 C982.98510622 2103.803154 982.98947678 2105.82063245 982.99385388 2107.83811089 C983.03142282 2125.18911161 983.0660193 2142.5401176 983.09976591 2159.89112616 C983.14274617 2181.95058252 983.18843881 2204.0100333 983.23648514 2226.0694792 C983.24201849 2228.61303457 983.24752077 2231.15659001 983.25299172 2233.70014551 C983.32791989 2268.48544956 983.4373168 2303.27043855 983.58870404 2338.055495 C983.62469697 2346.32885565 983.65911684 2354.60222143 983.69245565 2362.87559319 C983.7017638 2365.17653326 983.71107248 2367.47747334 983.7203817 2369.77841341 C983.73412163 2373.17658066 983.74783675 2376.57474799 983.76146156 2379.97291569 C983.81355508 2392.92776661 983.87210346 2405.8825474 983.94240019 2418.83731278 C983.98492165 2426.76021021 984.02002722 2434.68311872 984.04944325 2442.60607556 C984.06645261 2447.10843525 984.08681462 2451.61070721 984.11703656 2456.1129992 C984.61395143 2531.40264006 968.13575128 2601.65298873 916.16015625 2658.62109375 C914.19730067 2660.78271952 912.2803374 2662.97526262 910.375 2665.1875 C904.72149949 2671.65978335 898.5708803 2677.4703515 892 2683 C891.44666992 2683.46712402 890.89333984 2683.93424805 890.32324219 2684.41552734 C880.95115791 2692.29112517 871.38358161 2699.51391208 861 2706 C860.37109863 2706.39751465 859.74219727 2706.7950293 859.09423828 2707.20458984 C832.36801451 2723.97173604 803.67524993 2735.06338569 773 2742 C771.915979 2742.25305908 771.915979 2742.25305908 770.81005859 2742.51123047 C706.42296598 2757.45392571 634.07091835 2742.81429602 578.25 2708.75 C561.45797875 2698.18570545 546.12220665 2685.90444561 532 2672 C530.83629493 2670.87463027 529.67223374 2669.74962869 528.5078125 2668.625 C521.82881466 2662.11958171 515.7325869 2655.36751241 510 2648 C508.83597656 2646.56140625 508.83597656 2646.56140625 507.6484375 2645.09375 C481.29251503 2611.96059032 464.10639241 2571.81196192 456.1875 2530.375 C455.99244873 2529.36453613 455.79739746 2528.35407227 455.59643555 2527.31298828 C451.66356049 2505.27015172 451.73162874 2483.12060877 451.82595155 2460.81645748 C451.84316793 2456.184824 451.84817875 2451.55317388 451.85471684 2446.92151523 C451.86770606 2438.82274268 451.88793845 2430.72401464 451.91300392 2422.62527084 C451.95363468 2409.44549944 451.97929235 2396.26571773 452.00323486 2383.08590698 C452.01180018 2378.46785572 452.02049443 2373.84980471 452.0292598 2369.23175383 C452.03145806 2368.07163605 452.03365632 2366.91151828 452.03592119 2365.71624543 C452.05208138 2357.30726846 452.07035166 2348.89829751 452.08954227 2340.48932695 C452.1665767 2306.58112223 452.21567734 2272.67296993 452.24388297 2238.76469007 C452.24709426 2234.91065893 452.25038546 2231.05662787 452.25369804 2227.20259681 C452.26485983 2214.17840282 452.27561323 2201.15420851 452.28608143 2188.13001394 C452.2871292 2186.82686765 452.28817696 2185.52372136 452.28925648 2184.18108578 C452.29030642 2182.87512534 452.29135635 2181.56916489 452.2924381 2180.22362989 C452.29456744 2177.57616993 452.29669745 2174.92870996 452.29882812 2172.28125 C452.29988706 2170.96518108 452.300946 2169.64911215 452.30203702 2168.29316235 C452.31780134 2148.76885172 452.33471254 2129.24454245 452.35373261 2109.72023469 C452.3557134 2107.68306727 452.3576742 2105.64589984 452.3596336 2103.6087324 C452.38996838 2072.2358029 452.43395847 2040.86295702 452.51428223 2009.4901123 C452.51600869 2008.81531146 452.51773515 2008.14051061 452.51951393 2007.44526126 C452.5474173 1996.56422865 452.5762725 1985.68319855 452.60528062 1974.80216884 C452.72673078 1929.23972267 452.79313875 1883.67750025 452.78763471 1838.11485859 C452.78690734 1831.77225869 452.78685065 1825.42965895 452.78721809 1819.08705902 C452.78730216 1817.21482153 452.78730216 1817.21482153 452.78738792 1815.30476105 C452.7899942 1795.25061554 452.85217269 1775.19707982 452.93726482 1755.14313298 C453.02163226 1734.97921501 453.04424285 1714.81597618 453.00432723 1694.65191463 C452.98253009 1682.68541429 453.007782 1670.72120903 453.1016699 1658.75504548 C453.15979958 1650.74618098 453.15535676 1642.73887283 453.10167295 1634.72998282 C453.07289712 1630.17609878 453.06978304 1625.62657587 453.14361136 1621.07310095 C453.49121368 1598.24761849 450.77757588 1583.80285669 436.17757703 1565.77383575 C432.57561897 1561.1855985 429.48983168 1556.27190878 426.34765625 1551.36328125 C425.12951324 1549.509383 423.90913423 1547.65695009 422.68554688 1545.80664062 C420.24209868 1542.10139828 417.79938915 1538.39567166 415.35742188 1534.68945312 C410.26452402 1526.9624823 405.16874237 1519.237777 400.02734375 1511.54296875 C392.82784719 1500.76754417 385.72075497 1489.93083669 378.59521484 1479.10644531 C369.82817248 1465.78297508 369.82817248 1465.78297508 361 1452.5 C353.80882384 1441.7394263 346.71142312 1430.9166607 339.59521484 1420.10644531 C330.82817248 1406.78297508 330.82817248 1406.78297508 322 1393.5 C314.80882384 1382.7394263 307.71142312 1371.9166607 300.59521484 1361.10644531 C291.82817248 1347.78297508 291.82817248 1347.78297508 283 1334.5 C275.80882384 1323.7394263 268.71142312 1312.9166607 261.59521484 1302.10644531 C252.82817248 1288.78297508 252.82817248 1288.78297508 244 1275.5 C236.80882384 1264.7394263 229.71142312 1253.9166607 222.59521484 1243.10644531 C213.82817248 1229.78297508 213.82817248 1229.78297508 205 1216.5 C197.80882384 1205.7394263 190.71142312 1194.9166607 183.59521484 1184.10644531 C174.82817248 1170.78297508 174.82817248 1170.78297508 166 1157.5 C158.80882384 1146.7394263 151.71142312 1135.9166607 144.59521484 1125.10644531 C135.82817248 1111.78297508 135.82817248 1111.78297508 127 1098.5 C119.80882384 1087.7394263 112.71142312 1076.9166607 105.59521484 1066.10644531 C99.34932296 1056.6193811 93.10178544 1047.13406286 86.79064941 1037.69024658 C81.44931542 1029.68962974 76.17166777 1021.64686923 70.88323975 1013.61123657 C62.24671917 1000.48963132 53.60770373 987.37034883 44.875 974.3125 C34.66645323 959.04236073 24.58475215 943.68881687 14.48976135 928.3434906 C8.1069691 918.64133261 1.71890888 908.94264866 -4.67123413 899.24533081 C-6.50814777 896.45748913 -8.34454222 893.66930597 -10.1809082 890.88110352 C-15.08129498 883.44305859 -19.98511724 876.0077243 -24.93359375 868.6015625 C-32.14606386 857.80657005 -39.26633572 846.9504472 -46.40478516 836.10644531 C-55.17182752 822.78297508 -55.17182752 822.78297508 -64 809.5 C-71.19117616 798.7394263 -78.28857688 787.9166607 -85.40478516 777.10644531 C-94.17182752 763.78297508 -94.17182752 763.78297508 -103 750.5 C-110.19117616 739.7394263 -117.28857688 728.9166607 -124.40478516 718.10644531 C-133.17182752 704.78297508 -133.17182752 704.78297508 -142 691.5 C-149.19117616 680.7394263 -156.28857688 669.9166607 -163.40478516 659.10644531 C-172.17182752 645.78297508 -172.17182752 645.78297508 -181 632.5 C-188.19117616 621.7394263 -195.28857688 610.9166607 -202.40478516 600.10644531 C-211.17182752 586.78297508 -211.17182752 586.78297508 -220 573.5 C-227.19117616 562.7394263 -234.28857688 551.9166607 -241.40478516 541.10644531 C-250.17182752 527.78297508 -250.17182752 527.78297508 -259 514.5 C-266.19117616 503.7394263 -273.28857688 492.9166607 -280.40478516 482.10644531 C-289.17182752 468.78297508 -289.17182752 468.78297508 -298 455.5 C-305.19117616 444.7394263 -312.28857688 433.9166607 -319.40478516 423.10644531 C-326.90400906 411.71565917 -334.42437057 400.34010689 -342 389 C-370.39902211 346.44377765 -389.90333966 297.78293042 -391 246 C-391.03867187 244.6085376 -391.03867187 244.6085376 -391.078125 243.18896484 C-391.70511661 217.9407966 -389.24447303 193.4820322 -383 169 C-382.75797852 168.04061523 -382.51595703 167.08123047 -382.26660156 166.09277344 C-373.24548827 131.08806743 -356.74720296 98.10171985 -334 70 C-333.32066406 69.12859375 -332.64132812 68.2571875 -331.94140625 67.359375 C-327.21647337 61.39291911 -322.13393737 55.80675243 -316.9375 50.25 C-316.27669434 49.54069336 -315.61588867 48.83138672 -314.93505859 48.10058594 C-310.52357405 43.43217478 -305.89685287 39.15277122 -301 35 C-300.08476562 34.20335937 -299.16953125 33.40671875 -298.2265625 32.5859375 C-285.08547754 21.41798842 -271.06528573 11.40321275 -256 3 C-255.28263672 2.5968457 -254.56527344 2.19369141 -253.82617188 1.77832031 C-241.92883992 -4.85339729 -229.78978456 -10.32605733 -217 -15 C-216.15179688 -15.31066406 -215.30359375 -15.62132813 -214.4296875 -15.94140625 C-144.78188141 -41.086158 -65.12751478 -35.30641545 0 0 Z " fill="#8737FE" transform="translate(459,101)"/>
<path d="M0 0 C1.08643799 0.56823486 1.08643799 0.56823486 2.19482422 1.14794922 C12.51393362 6.56609205 22.03926678 12.53114419 31.25927734 19.66064453 C32.94670662 20.95899474 34.65108982 22.23064825 36.36328125 23.49609375 C44.41090935 29.48600119 51.78639952 36.03561067 59 43 C59.67643555 43.6492041 60.35287109 44.2984082 61.04980469 44.96728516 C70.52192351 54.09912678 79.22714835 63.38349761 87 74 C87.82244754 75.09280114 88.64536382 76.18524966 89.46875 77.27734375 C100.25861559 91.78682302 109.44664025 107.58050973 117 124 C117.32419922 124.69818848 117.64839844 125.39637695 117.98242188 126.11572266 C129.32798517 150.85811824 138.9319094 180.11973567 139.17700195 207.56420898 C139.18983719 208.82760605 139.20267242 210.09100311 139.21589661 211.39268494 C139.22407809 212.76048376 139.23151908 214.12828718 139.23828125 215.49609375 C139.24235678 216.19890032 139.2464323 216.90170689 139.25063133 217.62581062 C139.27144199 221.36227234 139.28575257 225.09869812 139.29516602 228.83520508 C139.30393372 231.87317537 139.32459176 234.9106744 139.35668945 237.94848633 C139.54659164 256.33732478 138.97760213 273.94312372 135 292 C134.59213257 293.92066284 134.59213257 293.92066284 134.17602539 295.88012695 C133.48147069 298.92530742 132.71155696 301.92857275 131.875 304.9375 C131.58423584 305.99759277 131.29347168 307.05768555 130.99389648 308.14990234 C125.9527893 325.82705428 118.70213117 342.82564962 110 359 C109.42813965 360.0835376 109.42813965 360.0835376 108.84472656 361.18896484 C103.27664595 371.71716884 97.18951869 381.51005922 90 391 C89.15479584 392.13400126 88.30974415 393.26811616 87.46484375 394.40234375 C82.96980493 400.38590362 78.27040822 406.11810552 73.19140625 411.62109375 C71.75941156 413.17561205 70.34928107 414.75063738 68.96484375 416.34765625 C58.57794764 428.28773309 46.77639547 438.70040435 34 448 C33.22011719 448.57621094 32.44023437 449.15242188 31.63671875 449.74609375 C18.20032333 459.4230832 4.07534344 468.13710195 -11 475 C-11.69432129 475.31888184 -12.38864258 475.63776367 -13.10400391 475.96630859 C-78.91398008 505.83676678 -152.45069236 507.63862357 -220.1875 482.75 C-249.81663099 471.49484884 -277.91092772 454.80388399 -301 433 C-302.24596449 431.93277054 -303.49593956 430.87020443 -304.75 429.8125 C-314.74205094 421.07705587 -323.87637243 411.48929933 -332 401 C-332.78632812 400.01902344 -333.57265625 399.03804688 -334.3828125 398.02734375 C-365.04991277 359.49067571 -383.17264188 312.72094827 -389 264 C-389.09571289 263.2052124 -389.19142578 262.4104248 -389.29003906 261.59155273 C-390.21017833 252.89227906 -390.24346108 244.17549372 -390.25 235.4375 C-390.25067474 234.62319519 -390.25134949 233.80889038 -390.25204468 232.96990967 C-390.19478864 189.20810523 -379.43318386 147.63799774 -359 109 C-358.65888184 108.34966797 -358.31776367 107.69933594 -357.96630859 107.02929688 C-326.31764156 47.18132848 -269.21625568 1.46149396 -205 -19 C-136.62737748 -39.64013127 -63.24148441 -33.6164838 0 0 Z " fill="#FEFEFE" transform="translate(2145,102)"/>
<path d="M0 0 C0.66 0.33 1.32 0.66 2 1 C-6.25 9.25 -14.5 17.5 -23 26 C-23.66 25.67 -24.32 25.34 -25 25 C-22.50649333 22.30641391 -20.00401126 19.62132058 -17.5 16.9375 C-16.80390625 16.18533203 -16.1078125 15.43316406 -15.390625 14.65820312 C-10.83357739 9.78469387 -6.08479407 5.31614377 -1 1 C-0.67 0.67 -0.34 0.34 0 0 Z " fill="#AE78FE" transform="translate(159,135)"/>
</svg>
